<svg xmlns="http://www.w3.org/2000/svg" viewBox="0 0 427.04 288.5"><defs><style>.cls-1{fill:#fff;}.cls-1,.cls-2,.cls-3{stroke:#000;stroke-miterlimit:10;stroke-width:4px;}.cls-2{fill:#f0f0f0;}.cls-3{fill:#b3b3b3;}</style></defs><title>origami-filled</title><g id="Layer_2" data-name="Layer 2"><path class="cls-1" d="M616.07,443.48l86.62,229a4.44,4.44,0,0,0,5,2.8l266.9-49.06a.51.51,0,0,0,.14-.95L619.2,440.7A2.24,2.24,0,0,0,616.07,443.48Z" transform="translate(-613.92 -396.52)"/><path class="cls-2" d="M975.32,626.58,909,683l-201.43-6.88a.39.39,0,0,1-.06-.77l267.62-49.19A.24.24,0,0,1,975.32,626.58Z" transform="translate(-613.92 -396.52)"/><path class="cls-3" d="M976,626l-67,57,75.42-49.62a.49.49,0,0,0,0-.8Z" transform="translate(-613.92 -396.52)"/><path class="cls-3" d="M984.29,632.45a.57.57,0,0,0,.91-.33c34-141.06,52-219.4,53.76-232.95a.32.32,0,0,0-.62-.14c-4,13.41-25.6,92.86-62.34,227Z" transform="translate(-613.92 -396.52)"/><path class="cls-2" d="M1037.79,398.59,875,479,980,612l58.64-212.7A.61.61,0,0,0,1037.79,398.59Z" transform="translate(-613.92 -396.52)"/><path class="cls-1" d="M980,612,853.34,451.7a1.54,1.54,0,0,0-2.5.13L799.05,534.1,976,626Z" transform="translate(-613.92 -396.52)"/><polygon class="cls-2" points="164.08 126.48 203.66 108.14 185.08 137.48 164.08 126.48"/><path class="cls-3" d="M883.3,577.37l-34-122.17a1.39,1.39,0,0,1,.16-1.09l.71-1.13a2.5,2.5,0,0,1,4.08-.22l2.2,2.76a1.35,1.35,0,0,1,.24.46l37.89,125.1a1.36,1.36,0,0,1-1.94,1.6L884,578.21A1.36,1.36,0,0,1,883.3,577.37Z" transform="translate(-613.92 -396.52)"/></g></svg>